PathFileType	4	(X/Y/Z)	c:/Users/goper/Files/vsCode/490R/osim_files/C17/C17_Static.trc
DataRate	CameraRate	NumFrames	NumMarkers	Units                	OrigDataRate	OrigDataStartFrame	OrigNumFrames
250.00	250.00	4	36	mm	250.0	1222	3257
                Frame#	Time	LPSIS			LASIS			LTH1			LTH2			LTH3			LTH4			LLFE			LMFE			LSH1			LSH2			LSH3			LSH4			LLMAL			LMMAL			LCAL			LMTP5			LTOE			LMTP1			RPSIS			RASIS			RTH1			RTH2			RTH3			RTH4			RLFE			RMFE			RSH1			RSH2			RSH3			RSH4			RLMAL			RMMAL			RCAL			RMTP1			RTOE			RMTP5		
		X1	Y1	Z1	X2	Y2	Z2	X3	Y3	Z3	X4	Y4	Z4	X5	Y5	Z5	X6	Y6	Z6	X7	Y7	Z7	X8	Y8	Z8	X9	Y9	Z9	X10	Y10	Z10	X11	Y11	Z11	X12	Y12	Z12	X13	Y13	Z13	X14	Y14	Z14	X15	Y15	Z15	X16	Y16	Z16	X17	Y17	Z17	X18	Y18	Z18	X19	Y19	Z19	X20	Y20	Z20	X21	Y21	Z21	X22	Y22	Z22	X23	Y23	Z23	X24	Y24	Z24	X25	Y25	Z25	X26	Y26	Z26	X27	Y27	Z27	X28	Y28	Z28	X29	Y29	Z29	X30	Y30	Z30	X31	Y31	Z31	X32	Y32	Z32	X33	Y33	Z33	X34	Y34	Z34	X35	Y35	Z35	X36	Y36	Z36

1222	4.88400	-313.06857	1079.32300	392.89194	-98.69101	1031.24536	311.81256	-202.28220	753.80780	258.37842	-200.87460	709.41669	258.94501	-140.14587	751.66437	258.63745	-146.88474	707.06036	259.74323	-207.72679	513.95770	277.29306	-207.67827	504.54492	399.93112	-278.28180	289.53854	261.32651	-276.94232	246.37527	259.74838	-215.47180	283.87601	255.19691	-224.75137	240.94351	256.67523	-260.42010	97.87174	266.81473	-246.57428	97.52514	352.85251	-333.40427	54.43368	308.95798	-143.28754	41.06258	235.89438	-83.12273	58.94529	302.98358	-101.23065	40.35772	352.60526	-318.33261	1070.83093	466.69809	-134.20728	1042.45789	591.42401	-217.13037	783.81323	652.66577	-219.34700	737.39484	648.48444	-157.18556	776.07550	649.26331	-167.62465	729.41547	650.27789	-215.29147	508.28549	648.83215	-219.06190	503.35028	522.77576	-296.03235	329.22522	674.32672	-293.53564	283.37604	671.16644	-234.30820	324.62970	679.02374	-241.69681	277.81030	676.34241	-271.87372	91.13982	664.72302	-244.83516	101.45708	578.69025	-338.98267	51.09264	628.84351	-106.17561	41.74676	578.29608	-89.83225	62.55387	624.63141	-142.06497	35.69947	696.66699
1223	4.88800	-313.07050	1079.31799	392.89850	-98.68276	1031.25159	311.81833	-202.34827	753.76935	258.43179	-200.86090	709.41406	258.94888	-140.15135	751.64996	258.64154	-146.88675	707.05591	259.75424	-207.70444	513.95673	277.29083	-207.67821	504.52509	399.94247	-278.31961	289.50079	261.32162	-276.93127	246.36940	259.73862	-215.47919	283.85175	255.20061	-224.76421	240.94568	256.67337	-260.43979	97.86984	266.81424	-246.43573	97.72424	352.73111	-332.83276	54.24052	308.88522	-143.32399	41.02708	235.89304	-83.14387	58.93089	302.98999	-101.01791	40.57055	352.52530	-318.29526	1070.81677	466.71487	-134.29652	1042.40991	591.44110	-217.11194	783.77960	652.67670	-219.37871	737.36365	648.49524	-157.24992	776.04498	649.31671	-167.68994	729.39648	650.31274	-215.30602	508.28418	648.84180	-219.04376	503.37103	522.78052	-296.08093	329.20505	674.33514	-293.56143	283.32217	671.17993	-234.32297	324.61484	679.03754	-241.75229	277.77341	676.34955	-271.88843	91.11837	664.73505	-244.84415	101.43379	578.68127	-338.99039	51.09010	628.86816	-106.17242	41.75211	578.28619	-89.78894	62.55426	624.61505	-142.08650	35.67941	696.68060
1224	4.89200	-313.02747	1079.26965	392.82285	-98.66731	1031.23230	311.82529	-202.31734	753.74725	258.42264	-200.87601	709.38849	258.96048	-140.15685	751.63812	258.64325	-146.89528	707.04547	259.76993	-207.71945	513.93896	277.30402	-207.65762	504.51215	399.95029	-278.29816	289.49420	261.32855	-276.94510	246.35217	259.74799	-215.48386	283.84937	255.21112	-224.76462	240.91974	256.68039	-260.43549	97.86179	266.81595	-246.45226	97.69482	352.74545	-332.84308	54.21454	308.89536	-143.36026	41.00442	235.92009	-83.14279	58.91404	302.99341	-101.05360	40.54679	352.53766	-318.29083	1070.80200	466.70966	-134.35043	1042.39270	591.44141	-217.16193	783.74237	652.68152	-219.38745	737.35529	648.49744	-157.32378	776.02679	649.38220	-167.72510	729.37006	650.35913	-215.36293	508.24820	648.85095	-219.05174	503.38336	522.80817	-296.11426	329.19080	674.34125	-293.64215	283.25790	671.17957	-234.38663	324.59482	679.05310	-241.77594	277.74561	676.35175	-271.91843	91.10559	664.73700	-244.85728	101.42316	578.68024	-339.03040	51.07909	628.86804	-106.14722	41.75508	578.29987	-89.81119	62.55080	624.62415	-142.12886	35.65236	696.68292
1225	4.89600	-313.05341	1079.28394	392.84351	-98.67988	1031.22839	311.84082	-202.37427	753.75232	258.44662	-200.86032	709.39386	258.95410	-140.16531	751.65350	258.65219	-146.88094	707.05176	259.76993	-207.72964	513.93872	277.29800	-207.69333	504.50757	399.96255	-278.30707	289.47681	261.34399	-276.96368	246.36766	259.72314	-215.50330	283.84842	255.21123	-225.06252	240.62177	256.56696	-260.45615	97.85036	266.80820	-246.47110	97.70030	352.74881	-332.85349	54.20143	308.90512	-143.36551	41.00769	235.90720	-83.16013	58.92763	302.99078	-101.09187	40.54320	352.54929	-318.26456	1070.78198	466.71072	-134.40118	1042.37842	591.45752	-217.16621	783.72644	652.67297	-219.41719	737.34155	648.49475	-157.36499	776.06226	649.38849	-167.75842	729.40442	650.36621	-215.35457	508.25070	648.86188	-219.04893	503.41013	522.72687	-296.09799	329.18491	674.35370	-293.69067	283.25131	671.18121	-234.38673	324.59396	679.07239	-241.76160	277.77170	676.36377	-271.93655	91.10228	664.74463	-244.87752	101.42736	578.67535	-339.03113	51.05089	628.86761	-106.19004	41.74065	578.28601	-89.79774	62.57400	624.62518	-142.15172	35.65909	696.70258
